<?xml version="1.0" encoding="UTF-8"?>
<svg xmlns="http://www.w3.org/2000/svg" width="16" height="16" viewBox="0 0 16 16">
  <path d="M 13.38 6.45 L 15.50 6.75 L 15.50 9.25 L 13.38 9.55 L 12.90 10.71 L 14.18 12.42 L 12.42 14.18 L 10.71 12.90 L 9.55 13.38 L 9.25 15.50 L 6.75 15.50 L 6.45 13.38 L 5.29 12.90 L 3.58 14.18 L 1.82 12.42 L 3.10 10.71 L 2.62 9.55 L 0.50 9.25 L 0.50 6.75 L 2.62 6.45 L 3.10 5.29 L 1.82 3.58 L 3.58 1.82 L 5.29 3.10 L 6.45 2.62 L 6.75 0.50 L 9.25 0.50 L 9.55 2.62 L 10.71 3.10 L 12.42 1.82 L 14.18 3.58 L 12.90 5.29 Z M 10.6 8 A 2.6 2.6 0 1 0 5.4 8 A 2.6 2.6 0 1 0 10.6 8 Z" fill="#222222" fill-rule="evenodd"/>
</svg>
